# xmcd
#
# Track frame offsets:
# 150
# 13675
# 34621
# 50818
# 73142
# 88473
# 103282
# 125368
# 145250
# 156605
# 170981
# 192481
# 207767
# 223002
#
# Disc length: 3194 seconds
#
#
# Revision: 0
# Processed by: cddbd v1.5.1PL2 Copyright (c) Steve Scherf et al.
# Submitted via: FreeRIP 2.944 
#
DISCID=e50c780e
DTITLE=Léo Magalhães - Volume 4
DYEAR=1900
DGENRE=Forró
TTITLE0=Só Penso Em Você(always On My Mind)
TTITLE1=Preciso de Um Tempo
TTITLE2=Na Hora H
TTITLE3=Vivendo Por Viver
TTITLE4=Dois Corações e Uma História
TTITLE5=Solidão a Três
TTITLE6=Preciso Ser Amado
TTITLE7=O Amor Deixou A Gente
TTITLE8=Domingo Legal
TTITLE9=Encara ou Pára
TTITLE10=Sufocado(drowling)
TTITLE11=Dá Pra Ver No Seu Olhar
TTITLE12=Uma Luz no Fim do Tunel
TTITLE13=Minha Menina
EXTD=
EXTT0=
EXTT1=
EXTT2=
EXTT3=
EXTT4=
EXTT5=
EXTT6=
EXTT7=
EXTT8=
EXTT9=
EXTT10=
EXTT11=
EXTT12=
EXTT13=
PLAYORDER=
